<?xml version="1.0" encoding="UTF-8" standalone="no"?>
<svg
   viewBox="0 0 720.00 720.00"
   version="1.1"
   id="svg136"
   sodipodi:docname="suf_noNodal.svg"
   inkscape:export-filename="suf_noNodal.png"
   inkscape:export-xdpi="200"
   inkscape:export-ydpi="200"
   inkscape:version="1.2 (dc2aedaf03, 2022-05-15)"
   xmlns:inkscape="http://www.inkscape.org/namespaces/inkscape"
   xmlns:sodipodi="http://sodipodi.sourceforge.net/DTD/sodipodi-0.dtd"
   xmlns="http://www.w3.org/2000/svg"
   xmlns:svg="http://www.w3.org/2000/svg">
  <sodipodi:namedview
     id="namedview138"
     pagecolor="#ffffff"
     bordercolor="#666666"
     borderopacity="1.0"
     inkscape:showpageshadow="2"
     inkscape:pageopacity="0.0"
     inkscape:pagecheckerboard="0"
     inkscape:deskcolor="#d1d1d1"
     showgrid="false"
     inkscape:zoom="1.1305556"
     inkscape:cx="360.44226"
     inkscape:cy="289.68059"
     inkscape:window-width="1920"
     inkscape:window-height="1001"
     inkscape:window-x="-9"
     inkscape:window-y="-9"
     inkscape:window-maximized="1"
     inkscape:current-layer="svg136" />
  <defs
     id="defs4">
    <style
       type="text/css"
       id="style2"><![CDATA[
    line, polyline, path, rect, circle {
      fill: none;
      stroke: #000000;
      stroke-linecap: round;
      stroke-linejoin: round;
      stroke-miterlimit: 10.00;
    }
  ]]></style>
  </defs>
  <rect
     width="100%"
     height="100%"
     style="stroke: none; fill: #FFFFFF;"
     id="rect6" />
  <rect
     x="0.00"
     y="0.00"
     width="720.00"
     height="720.00"
     style="stroke-width: 1.07; stroke: #FFFFFF; fill: #FFFFFF;"
     id="rect8" />
  <defs
     id="defs13">
    <clipPath
       id="cpNDAuODU0OHw2NDkuOHw2ODguMzM0fDUuNDc5NDU=">
      <rect
         x="40.85"
         y="5.48"
         width="608.95"
         height="682.85"
         id="rect10" />
    </clipPath>
  </defs>
  <rect
     x="40.85"
     y="5.48"
     width="608.95"
     height="682.85"
     style="stroke-width: 1.07; stroke: none; fill: #FFFFFF;"
     clip-path="url(#cpNDAuODU0OHw2NDkuOHw2ODguMzM0fDUuNDc5NDU=)"
     id="rect15" />
  <polyline
     points="68.53,36.52 114.67,36.52 160.80,36.52 206.93,36.52 253.06,36.52 299.20,36.52 345.33,36.52 391.46,36.52 437.59,36.52 483.72,36.52 529.86,36.52 622.12,36.52 622.12,67.13 529.86,80.38 483.72,73.73 437.59,77.44 391.46,80.55 345.33,89.38 299.20,86.71 253.06,85.72 206.93,87.98 160.80,107.56 114.67,131.88 68.53,120.57 "
     style="stroke-width: 0.75; stroke: none; fill: #440154;"
     clip-path="url(#cpNDAuODU0OHw2NDkuOHw2ODguMzM0fDUuNDc5NDU=)"
     id="polyline17" />
  <polyline
     points="68.53,36.52 114.67,36.52 160.80,36.52 206.93,36.52 253.06,36.52 299.20,36.52 345.33,36.52 391.46,36.52 437.59,36.52 483.72,36.52 529.86,36.52 622.12,36.52 "
     style="stroke-width: 1.07; stroke: none;"
     clip-path="url(#cpNDAuODU0OHw2NDkuOHw2ODguMzM0fDUuNDc5NDU=)"
     id="polyline19" />
  <polyline
     points="68.53,120.57 114.67,131.88 160.80,107.56 206.93,87.98 253.06,85.72 299.20,86.71 345.33,89.38 391.46,80.55 437.59,77.44 483.72,73.73 529.86,80.38 622.12,67.13 622.12,143.78 529.86,215.42 483.72,214.57 437.59,283.01 391.46,318.45 345.33,291.36 299.20,352.29 253.06,396.10 206.93,415.73 160.80,407.94 114.67,444.98 68.53,657.29 "
     style="stroke-width: 0.75; stroke: none; fill: #21908C;"
     clip-path="url(#cpNDAuODU0OHw2NDkuOHw2ODguMzM0fDUuNDc5NDU=)"
     id="polyline21" />
  <polyline
     points="68.53,120.57 114.67,131.88 160.80,107.56 206.93,87.98 253.06,85.72 299.20,86.71 345.33,89.38 391.46,80.55 437.59,77.44 483.72,73.73 529.86,80.38 622.12,67.13 "
     style="stroke-width: 1.07; stroke: none;"
     clip-path="url(#cpNDAuODU0OHw2NDkuOHw2ODguMzM0fDUuNDc5NDU=)"
     id="polyline23" />
  <polyline
     points="68.53,657.29 114.67,444.98 160.80,407.94 206.93,415.73 253.06,396.10 299.20,352.29 345.33,291.36 391.46,318.45 437.59,283.01 483.72,214.57 529.86,215.42 622.12,143.78 622.12,657.29 529.86,657.29 483.72,657.29 437.59,657.29 391.46,657.29 345.33,657.29 299.20,657.29 253.06,657.29 206.93,657.29 160.80,657.29 114.67,657.29 68.53,657.29 "
     style="stroke-width: 0.75; stroke: none; fill: #FDE725;"
     clip-path="url(#cpNDAuODU0OHw2NDkuOHw2ODguMzM0fDUuNDc5NDU=)"
     id="polyline25" />
  <polyline
     points="68.53,657.29 114.67,444.98 160.80,407.94 206.93,415.73 253.06,396.10 299.20,352.29 345.33,291.36 391.46,318.45 437.59,283.01 483.72,214.57 529.86,215.42 622.12,143.78 "
     style="stroke-width: 1.07; stroke: none;"
     clip-path="url(#cpNDAuODU0OHw2NDkuOHw2ODguMzM0fDUuNDc5NDU=)"
     id="polyline27" />
  <defs
     id="defs32">
    <clipPath
       id="cpMHw3MjB8NzIwfDA=">
      <rect
         x="0.00"
         y="0.00"
         width="720.00"
         height="720.00"
         id="rect29" />
    </clipPath>
  </defs>
  <polyline
     points="40.85,688.33 40.85,5.48 "
     style="stroke-width: 1.07; stroke-linecap: butt;"
     clip-path="url(#cpMHw3MjB8NzIwfDA=)"
     id="polyline34" />
  <g
     clip-path="url(#cpMHw3MjB8NzIwfDA=)"
     id="g38">
    <text
       x="18.41"
       y="660.51"
       style="font-size: 8.80px; fill: #4D4D4D; font-family: Arial;"
       textLength="17.52px"
       lengthAdjust="spacingAndGlyphs"
       id="text36">0.00</text>
  </g>
  <g
     clip-path="url(#cpMHw3MjB8NzIwfDA=)"
     id="g42">
    <text
       x="18.41"
       y="505.32"
       style="font-size: 8.80px; fill: #4D4D4D; font-family: Arial;"
       textLength="17.52px"
       lengthAdjust="spacingAndGlyphs"
       id="text40">0.25</text>
  </g>
  <g
     clip-path="url(#cpMHw3MjB8NzIwfDA=)"
     id="g46">
    <text
       x="18.41"
       y="350.13"
       style="font-size: 8.80px; fill: #4D4D4D; font-family: Arial;"
       textLength="17.52px"
       lengthAdjust="spacingAndGlyphs"
       id="text44">0.50</text>
  </g>
  <g
     clip-path="url(#cpMHw3MjB8NzIwfDA=)"
     id="g50">
    <text
       x="18.41"
       y="194.93"
       style="font-size: 8.80px; fill: #4D4D4D; font-family: Arial;"
       textLength="17.52px"
       lengthAdjust="spacingAndGlyphs"
       id="text48">0.75</text>
  </g>
  <g
     clip-path="url(#cpMHw3MjB8NzIwfDA=)"
     id="g54">
    <text
       x="18.41"
       y="39.74"
       style="font-size: 8.80px; fill: #4D4D4D; font-family: Arial;"
       textLength="17.52px"
       lengthAdjust="spacingAndGlyphs"
       id="text52">1.00</text>
  </g>
  <polyline
     points="38.12,657.29 40.85,657.29 "
     style="stroke-width: 1.07; stroke: #333333; stroke-linecap: butt;"
     clip-path="url(#cpMHw3MjB8NzIwfDA=)"
     id="polyline56" />
  <polyline
     points="38.12,502.10 40.85,502.10 "
     style="stroke-width: 1.07; stroke: #333333; stroke-linecap: butt;"
     clip-path="url(#cpMHw3MjB8NzIwfDA=)"
     id="polyline58" />
  <polyline
     points="38.12,346.91 40.85,346.91 "
     style="stroke-width: 1.07; stroke: #333333; stroke-linecap: butt;"
     clip-path="url(#cpMHw3MjB8NzIwfDA=)"
     id="polyline60" />
  <polyline
     points="38.12,191.71 40.85,191.71 "
     style="stroke-width: 1.07; stroke: #333333; stroke-linecap: butt;"
     clip-path="url(#cpMHw3MjB8NzIwfDA=)"
     id="polyline62" />
  <polyline
     points="38.12,36.52 40.85,36.52 "
     style="stroke-width: 1.07; stroke: #333333; stroke-linecap: butt;"
     clip-path="url(#cpMHw3MjB8NzIwfDA=)"
     id="polyline64" />
  <polyline
     points="40.85,688.33 649.80,688.33 "
     style="stroke-width: 1.07; stroke-linecap: butt;"
     clip-path="url(#cpMHw3MjB8NzIwfDA=)"
     id="polyline66" />
  <polyline
     points="68.53,691.07 68.53,688.33 "
     style="stroke-width: 1.07; stroke: #333333; stroke-linecap: butt;"
     clip-path="url(#cpMHw3MjB8NzIwfDA=)"
     id="polyline68" />
  <polyline
     points="183.86,691.07 183.86,688.33 "
     style="stroke-width: 1.07; stroke: #333333; stroke-linecap: butt;"
     clip-path="url(#cpMHw3MjB8NzIwfDA=)"
     id="polyline70" />
  <polyline
     points="299.20,691.07 299.20,688.33 "
     style="stroke-width: 1.07; stroke: #333333; stroke-linecap: butt;"
     clip-path="url(#cpMHw3MjB8NzIwfDA=)"
     id="polyline72" />
  <polyline
     points="414.53,691.07 414.53,688.33 "
     style="stroke-width: 1.07; stroke: #333333; stroke-linecap: butt;"
     clip-path="url(#cpMHw3MjB8NzIwfDA=)"
     id="polyline74" />
  <polyline
     points="529.86,691.07 529.86,688.33 "
     style="stroke-width: 1.07; stroke: #333333; stroke-linecap: butt;"
     clip-path="url(#cpMHw3MjB8NzIwfDA=)"
     id="polyline76" />
  <polyline
     points="645.19,691.07 645.19,688.33 "
     style="stroke-width: 1.07; stroke: #333333; stroke-linecap: butt;"
     clip-path="url(#cpMHw3MjB8NzIwfDA=)"
     id="polyline78" />
  <g
     clip-path="url(#cpMHw3MjB8NzIwfDA=)"
     id="g82">
    <text
       x="62.28"
       y="699.70"
       style="font-size: 8.80px; fill: #4D4D4D; font-family: Arial;"
       textLength="12.51px"
       lengthAdjust="spacingAndGlyphs"
       id="text80">0.0</text>
  </g>
  <g
     clip-path="url(#cpMHw3MjB8NzIwfDA=)"
     id="g86">
    <text
       x="177.61"
       y="699.70"
       style="font-size: 8.80px; fill: #4D4D4D; font-family: Arial;"
       textLength="12.51px"
       lengthAdjust="spacingAndGlyphs"
       id="text84">2.5</text>
  </g>
  <g
     clip-path="url(#cpMHw3MjB8NzIwfDA=)"
     id="g90">
    <text
       x="292.94"
       y="699.70"
       style="font-size: 8.80px; fill: #4D4D4D; font-family: Arial;"
       textLength="12.51px"
       lengthAdjust="spacingAndGlyphs"
       id="text88">5.0</text>
  </g>
  <g
     clip-path="url(#cpMHw3MjB8NzIwfDA=)"
     id="g94">
    <text
       x="408.27"
       y="699.70"
       style="font-size: 8.80px; fill: #4D4D4D; font-family: Arial;"
       textLength="12.51px"
       lengthAdjust="spacingAndGlyphs"
       id="text92">7.5</text>
  </g>
  <g
     clip-path="url(#cpMHw3MjB8NzIwfDA=)"
     id="g98">
    <text
       x="521.10"
       y="699.70"
       style="font-size: 8.80px; fill: #4D4D4D; font-family: Arial;"
       textLength="17.52px"
       lengthAdjust="spacingAndGlyphs"
       id="text96">10.0</text>
  </g>
  <g
     clip-path="url(#cpMHw3MjB8NzIwfDA=)"
     id="g102">
    <text
       x="636.43"
       y="699.70"
       style="font-size: 8.80px; fill: #4D4D4D; font-family: Arial;"
       textLength="17.52px"
       lengthAdjust="spacingAndGlyphs"
       id="text100">12.5</text>
  </g>
  <g
     clip-path="url(#cpMHw3MjB8NzIwfDA=)"
     id="g106">
    <text
       x="286.03"
       y="712.21"
       style="font-size: 11.00px; font-family: Arial;"
       textLength="118.60px"
       lengthAdjust="spacingAndGlyphs"
       id="text104">Seminal root number (#)</text>
  </g>
  <g
     clip-path="url(#cpMHw3MjB8NzIwfDA=)"
     id="g110">
    <text
       transform="translate(13.35,357.91) rotate(-90)"
       style="font-size: 11.00px; font-family: Arial;"
       textLength="22.00px"
       lengthAdjust="spacingAndGlyphs"
       id="text108">SUF</text>
  </g>
  <rect
     x="660.76001"
     y="307.67001"
     width="53.759998"
     height="78.470001"
     style="fill:#ffffff;stroke:none;stroke-width:1.07"
     clip-path="url(#cpMHw3MjB8NzIwfDA=)"
     id="rect112"
     transform="translate(-25.651106,-27.420147)" />
  <g
     clip-path="url(#cpMHw3MjB8NzIwfDA=)"
     id="g116"
     transform="matrix(1.5736859,0,0,1.5736859,-408.27337,-213.5783)"
     inkscape:export-filename="suf_123.png"
     inkscape:export-xdpi="200"
     inkscape:export-ydpi="200">
    <text
       x="666.23999"
       y="322.17999"
       style="font-size:11px;font-family:Arial"
       textLength="42.799999"
       lengthAdjust="spacingAndGlyphs"
       id="text114">root type</text>
  </g>
  <rect
     x="666.95001"
     y="329.53"
     width="15.86"
     height="15.86"
     style="fill:#440154;stroke:none;stroke-width:1.07;stroke-linecap:square;stroke-linejoin:miter"
     clip-path="url(#cpMHw3MjB8NzIwfDA=)"
     id="rect118"
     transform="translate(-25.651106,-27.420147)" />
  <rect
     x="666.95001"
     y="346.81"
     width="15.86"
     height="15.86"
     style="fill:#21908c;stroke:none;stroke-width:1.07;stroke-linecap:square;stroke-linejoin:miter"
     clip-path="url(#cpMHw3MjB8NzIwfDA=)"
     id="rect120"
     transform="translate(-25.651106,-27.420147)" />
  <rect
     x="666.95001"
     y="364.09"
     width="15.86"
     height="15.86"
     style="fill:#fde725;stroke:none;stroke-width:1.07;stroke-linecap:square;stroke-linejoin:miter"
     clip-path="url(#cpMHw3MjB8NzIwfDA=)"
     id="rect122"
     transform="translate(-25.651106,-27.420147)" />
  <text
     xml:space="preserve"
     style="font-size:14.66666667px;line-height:1.25;font-family:Arial;-inkscape-font-specification:'Arial, Normal';letter-spacing:0px;word-spacing:0px"
     x="658.96808"
     y="311.35135"
     id="text475"><tspan
       sodipodi:role="line"
       id="tspan473"
       x="658.96808"
       y="311.35135">Primary</tspan><tspan
       sodipodi:role="line"
       x="658.96808"
       y="328.01801"
       id="tspan477">Laterals</tspan><tspan
       sodipodi:role="line"
       x="658.96808"
       y="344.68469"
       id="tspan529">Seminals</tspan></text>
</svg>
